<svg width="712" height="199" viewBox="0 0 712 199" fill="none" xmlns="http://www.w3.org/2000/svg">
<circle cx="402.036" cy="24.5517" r="24.5517" fill="#F2A83A"/>
<path d="M0 165.242C1.32469 164.121 2.59843 162.372 3.82122 159.994C5.01005 157.685 5.89317 155.596 6.4706 153.728C6.5725 153.422 6.91217 152.284 7.48959 150.314C8.10099 148.344 8.66144 146.578 9.17093 145.015C13.0771 132.074 16.151 120.525 18.3928 110.369C20.7365 99.738 23.301 86.7628 26.0862 71.4439C26.9014 66.7226 26.1372 63.2071 23.7935 60.8974H70.0048C67.6611 63.2071 66.8969 66.7226 67.712 71.4439C70.4973 86.7628 73.0618 99.738 75.4054 110.369C77.6472 120.525 80.7212 132.074 84.6273 145.015C85.1368 146.578 85.6803 148.344 86.2577 150.314C86.8691 152.284 87.2258 153.422 87.3277 153.728C87.9051 155.596 88.7882 157.685 89.977 159.994C91.1998 162.372 92.4736 164.121 93.7983 165.242H50.6949C53.2084 162.355 54.4651 158.568 54.4651 153.88C54.4651 149.94 53.3103 141.381 51.0006 128.202H35.6647C37.3631 132.346 38.5689 135.335 39.2822 137.169C39.9615 138.935 40.7597 141.636 41.6768 145.27C42.492 148.497 42.8996 151.469 42.8996 154.186C42.8996 157.175 42.3222 159.757 41.1673 161.93C39.9785 164.138 38.0084 165.242 35.2571 165.242H0ZM33.6777 123.514H50.0835C44.6828 95.3903 39.5029 81.3282 34.5438 81.3282C29.7546 81.3282 27.3599 86.7288 27.3599 97.5301C27.3599 104.391 29.4659 113.053 33.6777 123.514ZM130.221 166.822C121.628 166.822 114.104 164.393 107.65 159.536C101.197 154.679 97.97 149.108 97.97 142.824C97.97 140.888 99.7193 138.562 103.218 135.844C106.614 133.195 110.368 130.936 114.478 129.068C118.486 127.234 121.407 126.351 123.241 126.419C124.871 126.453 126.247 127.03 127.368 128.151C128.421 129.238 128.828 130.715 128.591 132.583C128.489 133.365 128.353 134.316 128.183 135.437C128.047 136.524 127.962 137.22 127.928 137.526C127.793 138.748 127.691 140.413 127.623 142.519C127.555 144.726 127.64 146.391 127.877 147.512C128.149 148.87 128.574 150.297 129.151 151.791C129.797 153.456 130.595 154.696 131.546 155.511C132.599 156.394 133.957 157.141 135.622 157.753C137.286 158.364 139.256 158.67 141.532 158.67C145.608 158.67 149.157 157.311 152.18 154.594C155.237 151.842 156.766 148.497 156.766 144.557C156.766 139.699 155 135.81 151.467 132.889C147.935 130.002 143.145 127.607 137.099 125.705C132.887 124.381 129.983 123.447 128.387 122.903C126.519 122.258 123.903 121.256 120.541 119.897C117.654 118.708 115.242 117.502 113.306 116.28C111.404 115.057 109.451 113.596 107.447 111.898C105.443 110.2 103.846 108.365 102.657 106.395C101.469 104.425 100.517 102.15 99.8042 99.5681C99.0909 96.9527 98.7343 94.1165 98.7343 91.0595C98.7343 82.3302 101.91 74.8576 108.262 68.6417C114.648 62.4259 122.222 59.3179 130.985 59.3179C133.465 59.3179 137.286 60.0142 142.449 61.4069C147.612 62.7995 151.79 63.4958 154.983 63.4958C157.632 63.4958 160.196 62.7995 162.676 61.4069C165.156 60.0142 166.752 59.3179 167.465 59.3179C169.741 59.3179 170.522 61.5767 169.809 66.0942C168.994 71.4609 166.786 76.5389 163.186 81.3282C159.755 85.9136 156.222 88.2233 152.588 88.2573C149.191 88.2573 145.659 87.595 141.99 86.2703C138.288 84.9456 135.146 83.519 132.565 81.9905C129.949 80.4281 126.926 79.0015 123.496 77.7107C120.031 76.386 116.753 75.7237 113.662 75.7237C111.692 75.7237 110.028 76.437 108.669 77.8636C107.311 79.2562 106.631 80.9715 106.631 83.0095C106.631 84.538 107.039 85.9646 107.854 87.2893C108.669 88.6479 109.654 89.7688 110.809 90.6519C111.896 91.5011 113.544 92.3333 115.751 93.1485C117.925 93.9297 119.844 94.5411 121.509 94.9827C123.173 95.3903 125.432 95.8148 128.285 96.2564C131.784 96.7659 134.076 97.0716 135.163 97.1735C135.741 97.2075 136.794 97.3094 138.322 97.4792C139.885 97.6151 141.158 97.7339 142.143 97.8358C150.941 98.651 158.057 101.742 163.491 107.109C168.858 112.441 171.541 119.116 171.541 127.132C171.541 132.023 170.726 136.727 169.096 141.245C167.431 145.83 165.02 150.042 161.861 153.88C158.6 157.821 154.269 160.945 148.869 163.255C143.332 165.633 137.116 166.822 130.221 166.822ZM177.292 60.8974H205.366C209.951 60.8974 213.365 62.6806 215.607 66.2471C217.814 69.7456 218.918 73.9405 218.918 78.8316C218.918 81.8207 218.409 84.7758 217.39 87.6969C216.269 90.8557 215.165 93.3523 214.078 95.1865C212.855 97.1905 211.734 99.67 210.715 102.625C209.73 105.444 209.238 108.365 209.238 111.388C209.238 114.276 210.342 116.755 212.55 118.827C214.757 120.899 217.899 121.901 221.975 121.833C225.168 121.833 227.885 121.273 230.127 120.152C232.403 118.997 234.05 117.519 235.069 115.719C236.088 113.885 236.802 112.119 237.209 110.42C237.617 108.722 237.821 106.888 237.821 104.918C237.821 101.895 237.022 98.4812 235.426 94.677C233.897 91.0426 232.114 87.6629 230.076 84.538C228.038 81.4131 226.272 78.2712 224.778 75.1123C223.181 71.7157 222.383 68.9644 222.383 66.8585C222.383 65.1941 222.943 63.7845 224.064 62.6296C225.185 61.4748 226.561 60.8974 228.191 60.8974H252.545C258.014 60.8974 260.748 66.0093 260.748 76.2332C260.748 82.0415 259.661 87.6969 257.487 93.1994C255.347 98.6001 252.681 103.423 249.488 107.669C246.839 111.202 243.714 115.057 240.113 119.235C236.887 122.971 234.22 126.419 232.114 129.577C229.94 132.804 228.853 135.657 228.853 138.137C228.853 141.703 229.38 144.896 230.433 147.716C231.486 150.535 232.658 152.692 233.948 154.186C235.375 155.85 236.547 157.311 237.464 158.568C238.517 160.028 239.043 161.285 239.043 162.338C239.043 164.274 237.243 165.242 233.643 165.242H208.27C206.198 165.242 204.601 164.223 203.481 162.185C202.36 160.147 201.799 157.821 201.799 155.205C201.799 152.692 202.614 150.263 204.245 147.919C205.909 145.508 207.896 143.453 210.206 141.754C212.889 139.75 215.216 138.137 217.186 136.914C219.462 135.488 221.449 134.027 223.147 132.533C224.778 131.106 225.593 129.832 225.593 128.711C225.593 127.658 225.151 127.132 224.268 127.132C223.826 127.132 222.468 127.573 220.192 128.457C217.916 129.34 215.335 129.781 212.448 129.781C208.711 129.781 205.502 129.102 202.818 127.743C200.169 126.385 198.097 124.466 196.602 121.986C195.176 119.608 194.089 117.129 193.342 114.547C192.696 112.339 192.187 109.486 191.813 105.988L191.762 105.478C191.728 105.139 191.66 104.578 191.558 103.797C191.49 103.016 191.422 102.184 191.355 101.3C191.117 98.4472 190.93 96.5791 190.794 95.696C190.76 95.4582 190.539 93.6919 190.132 90.3972C189.792 87.6119 189.452 85.6249 189.113 84.4361C188.909 83.7228 188.484 81.9565 187.839 79.1373C187.296 76.7936 186.701 74.9425 186.056 73.5838C185.478 72.395 184.731 70.8495 183.814 68.9474C182.931 67.1811 181.963 65.6527 180.91 64.3619C179.823 63.0712 178.617 61.9164 177.292 60.8974ZM279.848 152.046C272.341 142.196 268.588 129.204 268.588 113.07C268.588 96.9357 272.341 83.9436 279.848 74.0933C287.354 64.2431 297.307 59.3179 309.704 59.3179C321.966 59.3179 331.867 64.2431 339.408 74.0933C346.949 83.9096 350.719 96.9018 350.719 113.07C350.719 129.238 346.949 142.23 339.408 152.046C331.867 161.896 321.966 166.822 309.704 166.822C297.307 166.822 287.354 161.896 279.848 152.046ZM301.247 66.4509C296.118 66.4509 293.197 72.3271 292.483 84.0794C291.668 96.4432 293.163 110.42 296.967 126.011C300.771 141.534 305.289 151.859 310.52 156.988C312.422 158.789 314.273 159.689 316.073 159.689C323.342 159.689 327.18 151.927 327.588 136.405C327.995 120.848 325.448 105.291 319.945 89.7348C314.443 74.2122 308.21 66.4509 301.247 66.4509ZM364.979 73.2272C364.979 70.1023 364.673 67.5887 364.062 65.6866C363.45 63.8524 362.295 62.256 360.597 60.8974H391.727C393.765 60.8974 395.379 61.8484 396.567 63.7505C397.79 65.6866 398.402 67.7586 398.402 69.9664C398.402 74.2122 397.434 78.424 395.497 82.6019C393.629 86.6099 391.269 90.3632 388.415 93.8618C385.596 97.3263 382.828 100.655 380.111 103.848C377.359 107.075 374.999 110.624 373.029 114.496C371.093 118.267 370.125 122.037 370.125 125.807C370.125 129.951 371.432 133.467 374.048 136.354C376.595 139.139 379.635 141.109 383.168 142.264C386.632 143.385 390.318 143.945 394.224 143.945C399.692 143.945 404.193 142.23 407.725 138.799C411.326 135.301 413.126 130.512 413.126 124.432V73.2272C413.126 70.2042 412.803 67.6906 412.158 65.6866C411.547 63.8185 410.409 62.2221 408.744 60.8974H444.613C442.949 62.2221 441.811 63.8185 441.199 65.6866C440.554 67.6906 440.231 70.2042 440.231 73.2272V126.724C440.231 132.906 439.399 138.392 437.735 143.181C436.036 148.038 433.913 151.893 431.366 154.747C428.819 157.6 425.795 159.977 422.297 161.88C418.9 163.714 415.555 165.004 412.26 165.752C409.067 166.465 405.806 166.822 402.478 166.822C399.115 166.822 395.837 166.465 392.644 165.752C389.451 165.038 386.157 163.748 382.76 161.88C379.363 160.011 376.374 157.634 373.793 154.747C371.211 151.859 369.106 148.004 367.475 143.181C365.811 138.256 364.979 132.77 364.979 126.724V73.2272ZM442.569 165.242C443.893 164.121 445.167 162.372 446.39 159.994C447.579 157.685 448.462 155.596 449.039 153.728C449.141 153.422 449.481 152.284 450.058 150.314C450.67 148.344 451.23 146.578 451.74 145.015C455.646 132.074 458.72 120.525 460.962 110.369C463.305 99.738 465.87 86.7628 468.655 71.4439C469.47 66.7226 468.706 63.2071 466.362 60.8974H512.574C510.23 63.2071 509.466 66.7226 510.281 71.4439C513.066 86.7628 515.631 99.738 517.974 110.369C520.216 120.525 523.29 132.074 527.196 145.015C527.706 146.578 528.249 148.344 528.826 150.314C529.438 152.284 529.795 153.422 529.896 153.728C530.474 155.596 531.357 157.685 532.546 159.994C533.769 162.372 535.042 164.121 536.367 165.242H493.264C495.777 162.355 497.034 158.568 497.034 153.88C497.034 149.94 495.879 141.381 493.569 128.202H478.234C479.932 132.346 481.138 135.335 481.851 137.169C482.53 138.935 483.328 141.636 484.246 145.27C485.061 148.497 485.468 151.469 485.468 154.186C485.468 157.175 484.891 159.757 483.736 161.93C482.547 164.138 480.577 165.242 477.826 165.242H442.569ZM476.246 123.514H492.652C487.252 95.3903 482.072 81.3282 477.113 81.3282C472.323 81.3282 469.929 86.7288 469.929 97.5301C469.929 104.391 472.035 113.053 476.246 123.514ZM543.698 60.8974H585.782C597.806 60.8974 606.654 63.6486 612.327 69.1512C617.999 74.6538 620.835 81.9565 620.835 91.0595C620.835 95.3053 620.275 99.3134 619.154 103.084C618.033 106.888 616.352 110.386 614.11 113.579C611.902 116.772 608.845 119.337 604.939 121.273C601.135 123.175 596.702 124.126 591.641 124.126C588.007 124.126 584.61 123.531 581.451 122.343C578.36 121.188 575.813 119.761 573.809 118.063C571.975 116.534 570.208 114.853 568.51 113.019C566.642 111.049 565.198 109.605 564.179 108.688C562.821 107.499 561.632 106.905 560.613 106.905C558.269 106.905 557.097 108.026 557.097 110.268C557.097 112.781 559.356 115.261 563.874 117.706C568.595 120.254 574.743 122.988 582.318 125.909C593.492 130.121 601.22 133.501 605.5 136.048C615.01 141.686 619.765 148.259 619.765 155.766C619.765 159.162 619.256 161.591 618.237 163.051C617.218 164.512 615.435 165.242 612.887 165.242H590.368C588.364 165.242 587.362 164.444 587.362 162.848C587.362 161.659 587.65 160.096 588.228 158.16C588.805 156.224 589.094 154.271 589.094 152.301C589.094 149.108 587.548 145.457 584.457 141.347C581.299 137.169 577.749 133.552 573.809 130.495C569.495 127.166 565.64 124.499 562.243 122.495C558.541 120.322 556.028 119.235 554.703 119.235C554.023 119.235 553.548 119.472 553.276 119.948C552.971 120.457 552.818 120.916 552.818 121.324C552.818 123.192 553.786 124.992 555.722 126.724C557.76 128.558 560.103 130.257 562.753 131.819C565.81 133.619 568.561 135.386 571.007 137.118C573.792 139.054 576.136 141.517 578.038 144.506C580.008 147.563 580.993 150.959 580.993 154.696C580.993 157.209 580.33 159.587 579.006 161.829C577.647 164.104 575.83 165.242 573.554 165.242H543.851C546.262 162.831 547.468 158.721 547.468 152.912V135.08L547.366 113.07V73.2272C547.366 67.4529 546.143 63.3429 543.698 60.8974ZM579.719 82.7038C561.717 82.7038 552.716 86.1514 552.716 93.0466C552.716 95.2204 553.616 97.0546 555.416 98.5491C557.216 100.044 559.781 101.114 563.11 101.759C566.336 102.404 569.58 102.829 572.841 103.033C576.475 103.27 580.195 103.389 583.999 103.389C587.803 103.389 591.522 103.27 595.157 103.033C598.486 102.829 601.746 102.404 604.939 101.759C608.336 101.08 610.917 100.01 612.683 98.5491C614.484 97.0546 615.384 95.2204 615.384 93.0466C615.384 86.1514 603.496 82.7038 579.719 82.7038ZM632.344 113.07C632.344 106.31 633.125 99.8568 634.688 93.7089C636.284 87.4251 638.577 81.7018 641.566 76.5389C644.589 71.3081 648.58 67.1302 653.539 64.0053C658.498 60.8804 664.069 59.3179 670.25 59.3179C672.73 59.3179 676.551 60.0142 681.714 61.4069C686.877 62.7995 691.055 63.4958 694.248 63.4958C696.897 63.4958 699.462 62.7995 701.941 61.4069C704.421 60.0142 706.017 59.3179 706.73 59.3179C707.715 59.3179 708.412 59.7935 708.819 60.7445C709.261 61.7635 709.414 62.9863 709.278 64.4129C709.108 66.0093 708.785 67.6227 708.31 69.2531C707.766 71.0873 707.138 72.8196 706.425 74.45C705.813 75.9445 705.1 77.3711 704.285 78.7297C703.3 80.3601 702.281 81.8207 701.228 83.1114C699.869 84.7078 698.426 85.9476 696.897 86.8307C695.199 87.7818 693.517 88.2573 691.853 88.2573C687.675 88.2573 683.667 87.595 679.829 86.2703C675.991 84.9456 672.883 83.519 670.505 81.9905C668.128 80.496 665.342 79.0694 662.149 77.7107C658.991 76.386 655.917 75.7237 652.928 75.7237C651.263 75.7237 649.837 76.1822 648.648 77.0993C647.459 78.0164 646.559 79.2053 645.947 80.6658C645.438 81.8546 645.03 83.2133 644.725 84.7418C644.487 85.9306 644.368 87.1364 644.368 88.3592C644.368 88.8347 644.351 89.4801 644.317 90.2953C644.283 91.1105 644.266 92.1634 644.266 93.4542C644.266 94.3033 644.317 95.3223 644.419 96.5111C644.521 97.7 644.725 98.6171 645.03 99.2624C645.336 99.9078 645.778 100.23 646.355 100.23C647.102 100.23 648.087 99.7719 649.31 98.8548C650.431 98.0057 652.027 97.1056 654.099 96.1545C656.002 95.2714 658.345 94.8298 661.13 94.8298C664.731 94.8298 669.622 96.2564 675.804 99.1096C681.986 101.963 686.317 103.389 688.796 103.389C690.698 103.389 692.346 102.71 693.738 101.351C695.131 99.9927 696.031 99.3134 696.439 99.3134C698.171 99.3134 699.037 101.283 699.037 105.224C699.037 107.126 698.68 109.045 697.967 110.981C697.186 113.121 696.184 115.006 694.961 116.636C693.636 118.403 691.768 119.88 689.357 121.069C687.081 122.19 684.363 122.75 681.205 122.75C678.317 122.75 675.549 122.122 672.9 120.865C670.352 119.642 668.043 118.063 665.971 116.127C663.729 113.987 661.861 112.136 660.366 110.573C658.498 108.603 656.732 107.024 655.067 105.835C653.267 104.544 651.569 103.899 649.972 103.899C647.323 103.899 646.593 105.835 647.782 109.707C650.907 119.32 655.73 127.166 662.251 133.246C668.807 139.326 675.668 142.366 682.835 142.366C686.232 142.366 689.238 141.856 691.853 140.837C694.367 139.852 696.337 138.562 697.763 136.965C699.258 135.301 700.447 133.772 701.33 132.38C702.383 130.715 703.3 129.425 704.081 128.508C704.964 127.455 705.847 126.928 706.73 126.928C708.497 126.928 709.38 128.813 709.38 132.583C709.38 136.252 708.599 140.022 707.036 143.894C705.474 147.733 703.249 151.418 700.362 154.95C697.542 158.381 693.857 161.217 689.306 163.459C684.788 165.701 679.897 166.822 674.632 166.822C662.37 166.822 652.248 162.168 644.266 152.861C636.318 143.589 632.344 130.325 632.344 113.07Z" fill="white"/>
</svg>
