<svg width="712" height="199" viewBox="0 0 712 199" fill="none" xmlns="http://www.w3.org/2000/svg">
<circle cx="402.036" cy="25.0791" r="24.5517" fill="#F2A83A"/>
<path d="M0 165.77C1.32469 164.649 2.59843 162.899 3.82122 160.522C5.01005 158.212 5.89317 156.123 6.4706 154.255C6.5725 153.949 6.91217 152.811 7.48959 150.841C8.10099 148.871 8.66144 147.105 9.17093 145.543C13.0771 132.601 16.151 121.053 18.3928 110.897C20.7365 100.265 23.301 87.2901 26.0862 71.9713C26.9014 67.2499 26.1372 63.7344 23.7935 61.4247H70.0048C67.6611 63.7344 66.8969 67.2499 67.712 71.9713C70.4973 87.2901 73.0618 100.265 75.4054 110.897C77.6472 121.053 80.7212 132.601 84.6273 145.543C85.1368 147.105 85.6803 148.871 86.2577 150.841C86.8691 152.811 87.2258 153.949 87.3277 154.255C87.9051 156.123 88.7882 158.212 89.977 160.522C91.1998 162.899 92.4736 164.649 93.7983 165.77H50.6949C53.2084 162.882 54.4651 159.095 54.4651 154.408C54.4651 150.468 53.3103 141.908 51.0006 128.729H35.6647C37.3631 132.873 38.5689 135.862 39.2822 137.696C39.9615 139.463 40.7597 142.163 41.6768 145.797C42.492 149.024 42.8996 151.996 42.8996 154.713C42.8996 157.703 42.3222 160.284 41.1673 162.458C39.9785 164.666 38.0084 165.77 35.2571 165.77H0ZM33.6777 124.042H50.0835C44.6828 95.9176 39.5029 81.8555 34.5438 81.8555C29.7546 81.8555 27.3599 87.2562 27.3599 98.0575C27.3599 104.919 29.4659 113.58 33.6777 124.042ZM130.221 167.349C121.628 167.349 114.104 164.92 107.65 160.063C101.197 155.206 97.97 149.635 97.97 143.352C97.97 141.416 99.7193 139.089 103.218 136.372C106.614 133.722 110.368 131.463 114.478 129.595C118.486 127.761 121.407 126.878 123.241 126.946C124.871 126.98 126.247 127.557 127.368 128.678C128.421 129.765 128.828 131.243 128.591 133.111C128.489 133.892 128.353 134.843 128.183 135.964C128.047 137.051 127.962 137.747 127.928 138.053C127.793 139.276 127.691 140.94 127.623 143.046C127.555 145.254 127.64 146.918 127.877 148.039C128.149 149.398 128.574 150.824 129.151 152.319C129.797 153.983 130.595 155.223 131.546 156.038C132.599 156.921 133.957 157.669 135.622 158.28C137.286 158.891 139.256 159.197 141.532 159.197C145.608 159.197 149.157 157.838 152.18 155.121C155.237 152.37 156.766 149.024 156.766 145.084C156.766 140.227 155 136.338 151.467 133.417C147.935 130.529 143.145 128.135 137.099 126.233C132.887 124.908 129.983 123.974 128.387 123.43C126.519 122.785 123.903 121.783 120.541 120.424C117.654 119.236 115.242 118.03 113.306 116.807C111.404 115.584 109.451 114.124 107.447 112.425C105.443 110.727 103.846 108.893 102.657 106.923C101.469 104.953 100.517 102.677 99.8042 100.095C99.0909 97.4801 98.7343 94.6439 98.7343 91.5869C98.7343 82.8575 101.91 75.3849 108.262 69.169C114.648 62.9532 122.222 59.8453 130.985 59.8453C133.465 59.8453 137.286 60.5416 142.449 61.9342C147.612 63.3268 151.79 64.0231 154.983 64.0231C157.632 64.0231 160.196 63.3268 162.676 61.9342C165.156 60.5416 166.752 59.8453 167.465 59.8453C169.741 59.8453 170.522 62.104 169.809 66.6216C168.994 71.9883 166.786 77.0662 163.186 81.8555C159.755 86.441 156.222 88.7507 152.588 88.7847C149.191 88.7847 145.659 88.1223 141.99 86.7976C138.288 85.4729 135.146 84.0463 132.565 82.5178C129.949 80.9554 126.926 79.5288 123.496 78.2381C120.031 76.9134 116.753 76.251 113.662 76.251C111.692 76.251 110.028 76.9643 108.669 78.3909C107.311 79.7836 106.631 81.4989 106.631 83.5368C106.631 85.0653 107.039 86.4919 107.854 87.8166C108.669 89.1753 109.654 90.2962 110.809 91.1793C111.896 92.0284 113.544 92.8606 115.751 93.6758C117.925 94.457 119.844 95.0684 121.509 95.51C123.173 95.9176 125.432 96.3422 128.285 96.7837C131.784 97.2932 134.076 97.5989 135.163 97.7008C135.741 97.7348 136.794 97.8367 138.322 98.0065C139.885 98.1424 141.158 98.2613 142.143 98.3632C150.941 99.1784 158.057 102.269 163.491 107.636C168.858 112.969 171.541 119.643 171.541 127.659C171.541 132.55 170.726 137.255 169.096 141.772C167.431 146.358 165.02 150.57 161.861 154.408C158.6 158.348 154.269 161.473 148.869 163.782C143.332 166.16 137.116 167.349 130.221 167.349ZM177.292 61.4247H205.366C209.951 61.4247 213.365 63.2079 215.607 66.7744C217.814 70.273 218.918 74.4678 218.918 79.359C218.918 82.348 218.409 85.3031 217.39 88.2242C216.269 91.3831 215.165 93.8796 214.078 95.7138C212.855 97.7178 211.734 100.197 210.715 103.152C209.73 105.972 209.238 108.893 209.238 111.916C209.238 114.803 210.342 117.282 212.55 119.354C214.757 121.426 217.899 122.428 221.975 122.36C225.168 122.36 227.885 121.8 230.127 120.679C232.403 119.524 234.05 118.047 235.069 116.246C236.088 114.412 236.802 112.646 237.209 110.948C237.617 109.249 237.821 107.415 237.821 105.445C237.821 102.422 237.022 99.0085 235.426 95.2043C233.897 91.5699 232.114 88.1902 230.076 85.0653C228.038 81.9404 226.272 78.7985 224.778 75.6397C223.181 72.243 222.383 69.4917 222.383 67.3858C222.383 65.7215 222.943 64.3119 224.064 63.157C225.185 62.0021 226.561 61.4247 228.191 61.4247H252.545C258.014 61.4247 260.748 66.5367 260.748 76.7605C260.748 82.5688 259.661 88.2242 257.487 93.7268C255.347 99.1274 252.681 103.951 249.488 108.196C246.839 111.729 243.714 115.584 240.113 119.762C236.887 123.498 234.22 126.946 232.114 130.105C229.94 133.332 228.853 136.185 228.853 138.664C228.853 142.231 229.38 145.424 230.433 148.243C231.486 151.062 232.658 153.219 233.948 154.713C235.375 156.378 236.547 157.838 237.464 159.095C238.517 160.556 239.043 161.812 239.043 162.865C239.043 164.801 237.243 165.77 233.643 165.77H208.27C206.198 165.77 204.601 164.751 203.481 162.713C202.36 160.675 201.799 158.348 201.799 155.732C201.799 153.219 202.614 150.79 204.245 148.447C205.909 146.035 207.896 143.98 210.206 142.282C212.889 140.278 215.216 138.664 217.186 137.442C219.462 136.015 221.449 134.554 223.147 133.06C224.778 131.633 225.593 130.36 225.593 129.239C225.593 128.186 225.151 127.659 224.268 127.659C223.826 127.659 222.468 128.101 220.192 128.984C217.916 129.867 215.335 130.309 212.448 130.309C208.711 130.309 205.502 129.629 202.818 128.271C200.169 126.912 198.097 124.993 196.602 122.513C195.176 120.136 194.089 117.656 193.342 115.075C192.696 112.867 192.187 110.014 191.813 106.515L191.762 106.006C191.728 105.666 191.66 105.106 191.558 104.324C191.49 103.543 191.422 102.711 191.355 101.828C191.117 98.9746 190.93 97.1064 190.794 96.2233C190.76 95.9855 190.539 94.2193 190.132 90.9245C189.792 88.1393 189.452 86.1523 189.113 84.9634C188.909 84.2501 188.484 82.4839 187.839 79.6647C187.296 77.321 186.701 75.4698 186.056 74.1112C185.478 72.9223 184.731 71.3769 183.814 69.4747C182.931 67.7085 181.963 66.18 180.91 64.8893C179.823 63.5986 178.617 62.4437 177.292 61.4247ZM279.848 152.574C272.341 142.723 268.588 129.731 268.588 113.597C268.588 97.4631 272.341 84.4709 279.848 74.6207C287.354 64.7704 297.307 59.8453 309.704 59.8453C321.966 59.8453 331.867 64.7704 339.408 74.6207C346.949 84.437 350.719 97.4291 350.719 113.597C350.719 129.765 346.949 142.757 339.408 152.574C331.867 162.424 321.966 167.349 309.704 167.349C297.307 167.349 287.354 162.424 279.848 152.574ZM301.247 66.9782C296.118 66.9782 293.197 72.8544 292.483 84.6068C291.668 96.9706 293.163 110.948 296.967 126.538C300.771 142.061 305.289 152.387 310.52 157.516C312.422 159.316 314.273 160.216 316.073 160.216C323.342 160.216 327.18 152.455 327.588 136.932C327.995 121.375 325.448 105.819 319.945 90.2622C314.443 74.7395 308.21 66.9782 301.247 66.9782ZM364.979 73.7545C364.979 70.6296 364.673 68.1161 364.062 66.214C363.45 64.3798 362.295 62.7834 360.597 61.4247H391.727C393.765 61.4247 395.379 62.3758 396.567 64.2779C397.79 66.214 398.402 68.2859 398.402 70.4937C398.402 74.7395 397.434 78.9514 395.497 83.1292C393.629 87.1373 391.269 90.8906 388.415 94.3891C385.596 97.8537 382.828 101.182 380.111 104.375C377.359 107.602 374.999 111.152 373.029 115.024C371.093 118.794 370.125 122.564 370.125 126.335C370.125 130.478 371.432 133.994 374.048 136.881C376.595 139.666 379.635 141.636 383.168 142.791C386.632 143.912 390.318 144.473 394.224 144.473C399.692 144.473 404.193 142.757 407.725 139.327C411.326 135.828 413.126 131.039 413.126 124.959V73.7545C413.126 70.7315 412.803 68.218 412.158 66.214C411.547 64.3458 410.409 62.7494 408.744 61.4247H444.613C442.949 62.7494 441.811 64.3458 441.199 66.214C440.554 68.218 440.231 70.7315 440.231 73.7545V127.252C440.231 133.434 439.399 138.919 437.735 143.708C436.036 148.566 433.913 152.421 431.366 155.274C428.819 158.127 425.795 160.505 422.297 162.407C418.9 164.241 415.555 165.532 412.26 166.279C409.067 166.992 405.806 167.349 402.478 167.349C399.115 167.349 395.837 166.992 392.644 166.279C389.451 165.566 386.157 164.275 382.76 162.407C379.363 160.539 376.374 158.161 373.793 155.274C371.211 152.387 369.106 148.532 367.475 143.708C365.811 138.783 364.979 133.298 364.979 127.252V73.7545ZM442.569 165.77C443.893 164.649 445.167 162.899 446.39 160.522C447.579 158.212 448.462 156.123 449.039 154.255C449.141 153.949 449.481 152.811 450.058 150.841C450.67 148.871 451.23 147.105 451.74 145.543C455.646 132.601 458.72 121.053 460.962 110.897C463.305 100.265 465.87 87.2901 468.655 71.9713C469.47 67.2499 468.706 63.7344 466.362 61.4247H512.574C510.23 63.7344 509.466 67.2499 510.281 71.9713C513.066 87.2901 515.631 100.265 517.974 110.897C520.216 121.053 523.29 132.601 527.196 145.543C527.706 147.105 528.249 148.871 528.826 150.841C529.438 152.811 529.795 153.949 529.896 154.255C530.474 156.123 531.357 158.212 532.546 160.522C533.769 162.899 535.042 164.649 536.367 165.77H493.264C495.777 162.882 497.034 159.095 497.034 154.408C497.034 150.468 495.879 141.908 493.569 128.729H478.234C479.932 132.873 481.138 135.862 481.851 137.696C482.53 139.463 483.328 142.163 484.246 145.797C485.061 149.024 485.468 151.996 485.468 154.713C485.468 157.703 484.891 160.284 483.736 162.458C482.547 164.666 480.577 165.77 477.826 165.77H442.569ZM476.246 124.042H492.652C487.252 95.9176 482.072 81.8555 477.113 81.8555C472.323 81.8555 469.929 87.2562 469.929 98.0575C469.929 104.919 472.035 113.58 476.246 124.042ZM543.698 61.4247H585.782C597.806 61.4247 606.654 64.176 612.327 69.6785C617.999 75.1811 620.835 82.4839 620.835 91.5869C620.835 95.8327 620.275 99.8407 619.154 103.611C618.033 107.415 616.352 110.914 614.11 114.107C611.902 117.299 608.845 119.864 604.939 121.8C601.135 123.702 596.702 124.653 591.641 124.653C588.007 124.653 584.61 124.059 581.451 122.87C578.36 121.715 575.813 120.289 573.809 118.59C571.975 117.062 570.208 115.38 568.51 113.546C566.642 111.576 565.198 110.133 564.179 109.215C562.821 108.027 561.632 107.432 560.613 107.432C558.269 107.432 557.097 108.553 557.097 110.795C557.097 113.308 559.356 115.788 563.874 118.234C568.595 120.781 574.743 123.515 582.318 126.436C593.492 130.648 601.22 134.028 605.5 136.575C615.01 142.214 619.765 148.786 619.765 156.293C619.765 159.69 619.256 162.118 618.237 163.579C617.218 165.039 615.435 165.77 612.887 165.77H590.368C588.364 165.77 587.362 164.971 587.362 163.375C587.362 162.186 587.65 160.624 588.228 158.688C588.805 156.751 589.094 154.798 589.094 152.828C589.094 149.635 587.548 145.984 584.457 141.874C581.299 137.696 577.749 134.079 573.809 131.022C569.495 127.693 565.64 125.027 562.243 123.023C558.541 120.849 556.028 119.762 554.703 119.762C554.023 119.762 553.548 120 553.276 120.475C552.971 120.985 552.818 121.443 552.818 121.851C552.818 123.719 553.786 125.519 555.722 127.252C557.76 129.086 560.103 130.784 562.753 132.347C565.81 134.147 568.561 135.913 571.007 137.645C573.792 139.581 576.136 142.044 578.038 145.033C580.008 148.09 580.993 151.487 580.993 155.223C580.993 157.736 580.33 160.114 579.006 162.356C577.647 164.632 575.83 165.77 573.554 165.77H543.851C546.262 163.358 547.468 159.248 547.468 153.44V135.607L547.366 113.597V73.7545C547.366 67.9802 546.143 63.8703 543.698 61.4247ZM579.719 83.2311C561.717 83.2311 552.716 86.6787 552.716 93.5739C552.716 95.7478 553.616 97.582 555.416 99.0765C557.216 100.571 559.781 101.641 563.11 102.286C566.336 102.932 569.58 103.356 572.841 103.56C576.475 103.798 580.195 103.917 583.999 103.917C587.803 103.917 591.522 103.798 595.157 103.56C598.486 103.356 601.746 102.932 604.939 102.286C608.336 101.607 610.917 100.537 612.683 99.0765C614.484 97.582 615.384 95.7478 615.384 93.5739C615.384 86.6787 603.496 83.2311 579.719 83.2311ZM632.344 113.597C632.344 106.838 633.125 100.384 634.688 94.2363C636.284 87.9525 638.577 82.2291 641.566 77.0662C644.589 71.8354 648.58 67.6575 653.539 64.5326C658.498 61.4077 664.069 59.8453 670.25 59.8453C672.73 59.8453 676.551 60.5416 681.714 61.9342C686.877 63.3268 691.055 64.0231 694.248 64.0231C696.897 64.0231 699.462 63.3268 701.941 61.9342C704.421 60.5416 706.017 59.8453 706.73 59.8453C707.715 59.8453 708.412 60.3208 708.819 61.2719C709.261 62.2908 709.414 63.5136 709.278 64.9402C709.108 66.5367 708.785 68.1501 708.31 69.7804C707.766 71.6146 707.138 73.3469 706.425 74.9773C705.813 76.4718 705.1 77.8984 704.285 79.2571C703.3 80.8875 702.281 82.348 701.228 83.6387C699.869 85.2352 698.426 86.4749 696.897 87.3581C695.199 88.3091 693.517 88.7847 691.853 88.7847C687.675 88.7847 683.667 88.1223 679.829 86.7976C675.991 85.4729 672.883 84.0463 670.505 82.5178C668.128 81.0233 665.342 79.5967 662.149 78.2381C658.991 76.9134 655.917 76.251 652.928 76.251C651.263 76.251 649.837 76.7096 648.648 77.6267C647.459 78.5438 646.559 79.7326 645.947 81.1932C645.438 82.382 645.03 83.7406 644.725 85.2691C644.487 86.458 644.368 87.6638 644.368 88.8866C644.368 89.3621 644.351 90.0074 644.317 90.8226C644.283 91.6378 644.266 92.6908 644.266 93.9815C644.266 94.8307 644.317 95.8497 644.419 97.0385C644.521 98.2273 644.725 99.1444 645.03 99.7898C645.336 100.435 645.778 100.758 646.355 100.758C647.102 100.758 648.087 100.299 649.31 99.3822C650.431 98.533 652.027 97.6329 654.099 96.6818C656.002 95.7987 658.345 95.3572 661.13 95.3572C664.731 95.3572 669.622 96.7837 675.804 99.6369C681.986 102.49 686.317 103.917 688.796 103.917C690.698 103.917 692.346 103.237 693.738 101.879C695.131 100.52 696.031 99.8407 696.439 99.8407C698.171 99.8407 699.037 101.811 699.037 105.751C699.037 107.653 698.68 109.572 697.967 111.508C697.186 113.648 696.184 115.533 694.961 117.164C693.636 118.93 691.768 120.407 689.357 121.596C687.081 122.717 684.363 123.278 681.205 123.278C678.317 123.278 675.549 122.649 672.9 121.392C670.352 120.17 668.043 118.59 665.971 116.654C663.729 114.514 661.861 112.663 660.366 111.101C658.498 109.131 656.732 107.551 655.067 106.362C653.267 105.072 651.569 104.426 649.972 104.426C647.323 104.426 646.593 106.362 647.782 110.234C650.907 119.847 655.73 127.693 662.251 133.773C668.807 139.853 675.668 142.893 682.835 142.893C686.232 142.893 689.238 142.384 691.853 141.365C694.367 140.38 696.337 139.089 697.763 137.492C699.258 135.828 700.447 134.3 701.33 132.907C702.383 131.243 703.3 129.952 704.081 129.035C704.964 127.982 705.847 127.455 706.73 127.455C708.497 127.455 709.38 129.341 709.38 133.111C709.38 136.779 708.599 140.549 707.036 144.422C705.474 148.26 703.249 151.945 700.362 155.478C697.542 158.908 693.857 161.745 689.306 163.986C684.788 166.228 679.897 167.349 674.632 167.349C662.37 167.349 652.248 162.696 644.266 153.389C636.318 144.116 632.344 130.852 632.344 113.597Z" fill="#111111"/>
</svg>
