<svg width="66" height="24" viewBox="0 0 66 24" fill="none" xmlns="http://www.w3.org/2000/svg">
<g clip-path="url(#clip0_8002_48251)">
<rect x="0.53125" y="1.53125" width="4.62462" height="4.62462" rx="0.264264" fill="#0FDB78"/>
<rect opacity="0.77" x="0.59375" y="7.14062" width="4.36036" height="4.36036" rx="0.264264" fill="#0FD977"/>
<rect opacity="0.77" x="6.14062" y="1.59375" width="4.36036" height="4.36036" rx="0.264264" fill="#0FD977"/>
<rect opacity="0.44" x="0.789062" y="12.8281" width="4.03003" height="4.03003" rx="0.264264" fill="#0FD977"/>
<rect opacity="0.44" x="11.8281" y="1.78906" width="4.03003" height="4.03003" rx="0.264264" fill="#0FD977"/>
<rect opacity="0.44" x="6.27344" y="7.27344" width="4.0961" height="4.0961" rx="0.264264" fill="#0FD776"/>
<rect opacity="0.22" x="0.859375" y="18.3125" width="3.83183" height="3.83183" rx="0.264264" fill="#0FD977"/>
<rect opacity="0.22" x="17.375" y="1.85938" width="3.83183" height="3.83183" rx="0.264264" fill="#0FD977"/>
<rect opacity="0.22" x="11.8281" y="7.40625" width="3.8979" height="3.76577" rx="0.264264" fill="#0FD977"/>
<rect opacity="0.22" x="6.40625" y="12.8281" width="3.76577" height="3.8979" rx="0.264264" fill="#0FD977"/>
</g>
<path d="M30.944 17.064V15.688H34.208C34.8373 15.688 35.3227 15.512 35.664 15.16C36.016 14.7973 36.192 14.3173 36.192 13.72C36.192 13.112 36.0213 12.6373 35.68 12.296C35.3387 11.944 34.848 11.768 34.208 11.768H30.944V10.744H33.984C34.7307 10.744 35.3867 10.8347 35.952 11.016C36.528 11.1973 36.976 11.5013 37.296 11.928C37.6267 12.344 37.792 12.9147 37.792 13.64V13.864C37.792 14.5467 37.6533 15.128 37.376 15.608C37.0987 16.0773 36.6773 16.44 36.112 16.696C35.5467 16.9413 34.8373 17.064 33.984 17.064H30.944ZM29.696 17.064V5.256H31.264V17.064H29.696ZM30.944 11.48V10.456H33.776C34.4373 10.456 34.9227 10.28 35.232 9.928C35.552 9.56533 35.712 9.10667 35.712 8.552C35.712 7.98667 35.552 7.528 35.232 7.176C34.9227 6.81333 34.4373 6.632 33.776 6.632H30.944V5.256H33.504C34.784 5.256 35.7387 5.528 36.368 6.072C36.9973 6.60533 37.312 7.37867 37.312 8.392V8.616C37.312 9.33067 37.152 9.90133 36.832 10.328C36.512 10.744 36.064 11.0427 35.488 11.224C34.9227 11.3947 34.2613 11.48 33.504 11.48H30.944ZM40.443 17V5.32H41.979V17H40.443ZM39.259 6.536V5.32H41.979V6.536H39.259ZM45.3411 17V8.456H46.8771V17H45.3411ZM44.0291 9.672V8.456H46.8771V9.672H44.0291ZM45.7731 7.08C45.4318 7.08 45.1758 6.98933 45.0051 6.808C44.8451 6.62667 44.7651 6.39733 44.7651 6.12C44.7651 5.84267 44.8451 5.61333 45.0051 5.432C45.1758 5.25067 45.4318 5.16 45.7731 5.16C46.1145 5.16 46.3651 5.25067 46.5251 5.432C46.6958 5.61333 46.7811 5.84267 46.7811 6.12C46.7811 6.39733 46.6958 6.62667 46.5251 6.808C46.3651 6.98933 46.1145 7.08 45.7731 7.08ZM55.735 17L52.519 13.016H51.111L55.031 8.456H56.647L53.095 12.568L53.207 11.752L57.511 17H55.735ZM49.847 17V5.32H51.383V17H49.847ZM61.6939 17.256C60.5739 17.256 59.7045 17.016 59.0859 16.536C58.4779 16.056 58.1632 15.4 58.1419 14.568H59.5819C59.6032 14.8987 59.7685 15.2133 60.0779 15.512C60.3979 15.8 60.9365 15.944 61.6939 15.944C62.3765 15.944 62.8992 15.8107 63.2619 15.544C63.6245 15.2667 63.8059 14.9307 63.8059 14.536C63.8059 14.184 63.6725 13.912 63.4059 13.72C63.1392 13.5173 62.7072 13.384 62.1099 13.32L61.1819 13.224C60.3712 13.1387 59.7099 12.8987 59.1979 12.504C58.6859 12.0987 58.4299 11.5333 58.4299 10.808C58.4299 10.264 58.5685 9.8 58.8459 9.416C59.1232 9.02133 59.5072 8.72267 59.9979 8.52C60.4885 8.30667 61.0539 8.2 61.6939 8.2C62.6539 8.2 63.4325 8.41333 64.0299 8.84C64.6272 9.26667 64.9365 9.90133 64.9579 10.744H63.5179C63.5072 10.4027 63.3472 10.1147 63.0379 9.88C62.7392 9.63467 62.2912 9.512 61.6939 9.512C61.0965 9.512 60.6432 9.63467 60.3339 9.88C60.0245 10.1253 59.8699 10.4347 59.8699 10.808C59.8699 11.128 59.9765 11.384 60.1899 11.576C60.4139 11.768 60.7765 11.8907 61.2779 11.944L62.2059 12.04C63.1232 12.136 63.8592 12.392 64.4139 12.808C64.9685 13.2133 65.2459 13.7893 65.2459 14.536C65.2459 15.0693 65.0912 15.544 64.7819 15.96C64.4832 16.3653 64.0672 16.6853 63.5339 16.92C63.0005 17.144 62.3872 17.256 61.6939 17.256Z" fill="#1B4732"/>
<defs>
<clipPath id="clip0_8002_48251">
<rect width="22" height="22" fill="white" transform="translate(0 1)"/>
</clipPath>
</defs>
</svg>
