<svg width="70" height="28" viewBox="0 0 70 28" fill="none" xmlns="http://www.w3.org/2000/svg">
<g clip-path="url(#clip0_15_44153)">
<g clip-path="url(#clip1_15_44153)">
<path d="M2.1875 17.5447V7.13835C2.1875 4.81032 4.07473 2.9231 6.40275 2.9231H7.85218" stroke="black" stroke-width="1.84416"/>
<path d="M6.79814 10.1677V20.7058C6.79814 23.0338 4.91088 24.921 2.58288 24.921H1.26562" stroke="black" stroke-width="2.10762"/>
<path d="M0 19.6553H3.10931V20.5238C3.10931 20.9564 2.88029 21.3567 2.50732 21.576C2.31981 21.6862 2.10624 21.7443 1.88873 21.7443H0V19.6553V19.6553" fill="black"/>
<path d="M7.84982 7.79656H5.74219V6.65358C5.74219 6.37542 5.86228 6.1108 6.07158 5.92763C6.24745 5.77377 6.47317 5.68896 6.7068 5.68896H7.84982V7.79656V7.79656" fill="black"/>
</g>
</g>
<path d="M17.4672 20C17.1872 20 17.0472 19.92 17.0472 19.76V19.72C17.0472 19.6267 17.1705 19.4833 17.4172 19.29C17.6639 19.0967 17.7872 18.8667 17.7872 18.6V7.2C17.7872 7.02667 17.7472 6.88 17.6672 6.76C17.5872 6.64 17.5039 6.55333 17.4172 6.5C17.3305 6.44667 17.2472 6.38333 17.1672 6.31C17.0872 6.23667 17.0472 6.16 17.0472 6.08V6.04C17.0472 5.88 17.1672 5.8 17.4072 5.8H25.8272C26.0939 5.8 26.2605 5.95333 26.3272 6.26L26.8072 8.24C26.8739 8.50667 26.7872 8.64 26.5472 8.64H26.4672C26.2939 8.64 26.1005 8.47333 25.8872 8.14C25.6739 7.80667 25.4339 7.47 25.1672 7.13C24.9005 6.79 24.6139 6.62 24.3072 6.62H20.1872C19.8005 6.62 19.6072 6.83333 19.6072 7.26V12.94H23.3072C23.4539 12.94 23.5872 12.88 23.7072 12.76C23.8272 12.64 23.9172 12.5033 23.9772 12.35C24.0372 12.1967 24.1072 12.06 24.1872 11.94C24.2672 11.82 24.3539 11.76 24.4472 11.76H24.5672C24.7405 11.76 24.8272 11.8733 24.8272 12.1V14.56C24.8272 14.7867 24.7405 14.9 24.5672 14.9H24.4472C24.3539 14.9 24.2672 14.8433 24.1872 14.73C24.1072 14.6167 24.0372 14.4867 23.9772 14.34C23.9172 14.1933 23.8272 14.0633 23.7072 13.95C23.5872 13.8367 23.4539 13.78 23.3072 13.78H19.6072V18.6C19.6072 18.8 19.6705 18.9667 19.7972 19.1C19.9239 19.2333 20.0539 19.3467 20.1872 19.44C20.3205 19.5333 20.3872 19.6267 20.3872 19.72V19.76C20.3872 19.92 20.2539 20 19.9872 20H17.4672ZM29.4472 8.5C29.0339 8.5 28.7072 8.38667 28.4672 8.16C28.2272 7.93333 28.1072 7.63333 28.1072 7.26C28.1072 6.88667 28.2305 6.58333 28.4772 6.35C28.7239 6.11667 29.0472 6 29.4472 6C29.8339 6 30.1472 6.11667 30.3872 6.35C30.6272 6.58333 30.7472 6.88667 30.7472 7.26C30.7472 7.63333 30.6272 7.93333 30.3872 8.16C30.1472 8.38667 29.8339 8.5 29.4472 8.5ZM28.2872 20C28.0339 20 27.9072 19.9133 27.9072 19.74V19.66C27.9072 19.5667 27.9672 19.4767 28.0872 19.39C28.2072 19.3033 28.3272 19.1967 28.4472 19.07C28.5672 18.9433 28.6272 18.78 28.6272 18.58V12.62C28.6272 12.3133 28.5072 12.0467 28.2672 11.82C28.0272 11.5933 27.9072 11.4467 27.9072 11.38V11.34C27.9072 11.2467 28.0072 11.1467 28.2072 11.04L29.7472 10.28C29.9605 10.2 30.1172 10.1867 30.2172 10.24C30.3172 10.2933 30.3672 10.4 30.3672 10.56V18.58C30.3672 18.74 30.4072 18.8767 30.4872 18.99C30.5672 19.1033 30.6605 19.1867 30.7672 19.24C30.8739 19.2933 30.9672 19.3567 31.0472 19.43C31.1272 19.5033 31.1672 19.58 31.1672 19.66V19.74C31.1672 19.9133 31.0272 20 30.7472 20H28.2872ZM41.1872 10.4C41.6539 10.4 41.8805 10.5067 41.8672 10.72C41.8539 10.7867 41.8139 10.8467 41.7472 10.9C41.6405 11.0067 41.5005 11.0867 41.3272 11.14C41.1539 11.1933 40.9405 11.2333 40.6872 11.26C40.4339 11.2867 40.2405 11.32 40.1072 11.36C40.5339 11.68 40.8739 12.09 41.1272 12.59C41.3805 13.09 41.5072 13.6 41.5072 14.12C41.5072 14.9467 41.2939 15.6733 40.8672 16.3C40.4405 16.9267 39.8539 17.4 39.1072 17.72C39.9605 17.9067 40.6072 18.2233 41.0472 18.67C41.4872 19.1167 41.7072 19.64 41.7072 20.24C41.7072 21.16 41.2772 21.89 40.4172 22.43C39.5572 22.97 38.4405 23.24 37.0672 23.24C35.6539 23.24 34.5405 22.9167 33.7272 22.27C32.9139 21.6233 32.5072 20.9333 32.5072 20.2C32.5072 19.9867 32.5705 19.8067 32.6972 19.66C32.8239 19.5133 33.0072 19.44 33.2472 19.44C33.4339 19.44 33.5972 19.5167 33.7372 19.67C33.8772 19.8233 33.9905 20.0167 34.0772 20.25C34.1639 20.4833 34.2839 20.7367 34.4372 21.01C34.5905 21.2833 34.7639 21.5367 34.9572 21.77C35.1505 22.0033 35.4405 22.2 35.8272 22.36C36.2139 22.52 36.6672 22.6 37.1872 22.6C38.0005 22.6 38.6605 22.3933 39.1672 21.98C39.6739 21.5667 39.9272 21.0267 39.9272 20.36C39.9272 19.72 39.7272 19.1967 39.3272 18.79C38.9272 18.3833 38.3872 18.1467 37.7072 18.08C37.3605 18.1067 37.1072 18.12 36.9472 18.12C35.7472 18.12 34.7339 17.7433 33.9072 16.99C33.0805 16.2367 32.6672 15.32 32.6672 14.24C32.6672 13.0533 33.0739 12.0833 33.8872 11.33C34.7005 10.5767 35.7672 10.2 37.0872 10.2C37.4472 10.2 37.9872 10.2333 38.7072 10.3C39.4272 10.3667 40.2539 10.4 41.1872 10.4ZM37.2672 17.46C38.0272 17.46 38.6339 17.2033 39.0872 16.69C39.5405 16.1767 39.7672 15.5267 39.7672 14.74C39.7672 13.6733 39.4839 12.7567 38.9172 11.99C38.3505 11.2233 37.6339 10.84 36.7672 10.84C36.0605 10.84 35.4905 11.0933 35.0572 11.6C34.6239 12.1067 34.4072 12.7467 34.4072 13.52C34.4072 14.6 34.6839 15.5267 35.2372 16.3C35.7905 17.0733 36.4672 17.46 37.2672 17.46ZM45.3272 8.5C44.9139 8.5 44.5872 8.38667 44.3472 8.16C44.1072 7.93333 43.9872 7.63333 43.9872 7.26C43.9872 6.88667 44.1105 6.58333 44.3572 6.35C44.6039 6.11667 44.9272 6 45.3272 6C45.7139 6 46.0272 6.11667 46.2672 6.35C46.5072 6.58333 46.6272 6.88667 46.6272 7.26C46.6272 7.63333 46.5072 7.93333 46.2672 8.16C46.0272 8.38667 45.7139 8.5 45.3272 8.5ZM43.9272 23.68C43.2739 23.68 42.7405 23.5333 42.3272 23.24C41.9139 22.9467 41.7072 22.56 41.7072 22.08C41.7072 21.8533 41.7805 21.6667 41.9272 21.52C42.0739 21.3733 42.2672 21.3 42.5072 21.3C42.7605 21.3 42.9605 21.3867 43.1072 21.56C43.2539 21.7333 43.3472 21.9267 43.3872 22.14C43.4272 22.3533 43.5139 22.5467 43.6472 22.72C43.7805 22.8933 43.9739 22.98 44.2272 22.98C44.5072 22.98 44.7305 22.88 44.8972 22.68C45.0639 22.48 45.1472 22.22 45.1472 21.9C45.1472 21.5667 45.0539 21.1533 44.8672 20.66C44.6805 20.1667 44.5872 19.7733 44.5872 19.48V12.62C44.5872 12.3133 44.4672 12.0533 44.2272 11.84C43.9872 11.6267 43.8672 11.48 43.8672 11.4V11.34C43.8672 11.2467 43.9605 11.1467 44.1472 11.04L45.7472 10.28C45.9472 10.1867 46.1039 10.1733 46.2172 10.24C46.3305 10.3067 46.3872 10.4133 46.3872 10.56V19.94C46.3872 20.7133 46.2739 21.4533 46.0472 22.16C45.7139 23.1733 45.0072 23.68 43.9272 23.68ZM53.5472 20.2C52.0005 20.2 50.7439 19.6967 49.7772 18.69C48.8105 17.6833 48.3272 16.4733 48.3272 15.06C48.3272 13.6733 48.7939 12.5167 49.7272 11.59C50.6605 10.6633 51.8139 10.2 53.1872 10.2C54.6672 10.2 55.8839 10.69 56.8372 11.67C57.7905 12.65 58.2672 13.8533 58.2672 15.28C58.2672 16.68 57.8272 17.85 56.9472 18.79C56.0672 19.73 54.9339 20.2 53.5472 20.2ZM53.7872 19.54C54.5739 19.54 55.2239 19.2067 55.7372 18.54C56.2505 17.8733 56.5072 16.9867 56.5072 15.88C56.5072 14.4667 56.1739 13.2767 55.5072 12.31C54.8405 11.3433 54.0005 10.86 52.9872 10.86C52.1339 10.86 51.4405 11.19 50.9072 11.85C50.3739 12.51 50.1072 13.3933 50.1072 14.5C50.1072 15.8333 50.4539 17.0067 51.1472 18.02C51.8405 19.0333 52.7205 19.54 53.7872 19.54ZM68.7472 10.4C68.9339 10.4 69.0272 10.48 69.0272 10.64V10.7C69.0272 10.82 68.9105 10.98 68.6772 11.18C68.4439 11.38 68.2605 11.6333 68.1272 11.94L64.3472 20.28C64.1205 20.8 63.9539 21.17 63.8472 21.39C63.7405 21.61 63.5572 21.9467 63.2972 22.4C63.0372 22.8533 62.8005 23.1833 62.5872 23.39C62.3739 23.5967 62.0972 23.79 61.7572 23.97C61.4172 24.15 61.0605 24.24 60.6872 24.24C59.9805 24.24 59.3939 24.05 58.9272 23.67C58.4605 23.29 58.2272 22.8867 58.2272 22.46C58.2272 22.22 58.2939 22.0267 58.4272 21.88C58.5605 21.7333 58.7472 21.66 58.9872 21.66C59.2139 21.66 59.4072 21.7567 59.5672 21.95C59.7272 22.1433 59.8439 22.36 59.9172 22.6C59.9905 22.84 60.1172 23.0567 60.2972 23.25C60.4772 23.4433 60.7072 23.54 60.9872 23.54C61.7739 23.54 62.5872 22.4867 63.4272 20.38L59.5872 11.92C59.4405 11.6267 59.2439 11.38 58.9972 11.18C58.7505 10.98 58.6272 10.82 58.6272 10.7V10.64C58.6272 10.48 58.7272 10.4 58.9272 10.4H61.5272C61.7139 10.4 61.8072 10.48 61.8072 10.64V10.7C61.8072 10.7933 61.7505 10.8967 61.6372 11.01C61.5239 11.1233 61.4405 11.23 61.3872 11.33C61.3339 11.43 61.3605 11.6333 61.4672 11.94L64.3472 18.72L67.2072 12.1C67.3139 11.86 67.3339 11.6633 67.2672 11.51C67.2005 11.3567 67.1072 11.2433 66.9872 11.17C66.8672 11.0967 66.7472 11.02 66.6272 10.94C66.5072 10.86 66.4472 10.78 66.4472 10.7V10.64C66.4472 10.48 66.5472 10.4 66.7472 10.4H68.7472Z" fill="#0A0A0A"/>
<defs>
<clipPath id="clip0_15_44153">
<rect width="7.87045" height="24" fill="white" transform="translate(0 2)"/>
</clipPath>
<clipPath id="clip1_15_44153">
<rect width="7.87045" height="24" fill="white" transform="translate(0 2)"/>
</clipPath>
</defs>
</svg>
