<svg xmlns:xlink="http://www.w3.org/1999/xlink" width="162" height="44" viewBox="0 0 162 44" fill="none" xmlns="http://www.w3.org/2000/svg">
<g clip-path="url(#clip0_9203_53879)" fill="none">
<rect y="2.75" width="38.5" height="38.5" rx="3.3" fill="url(&quot;#paint0_linear_9203_53879&quot;)"></rect>
<line y1="-0.33" x2="30.0099" y2="-0.33" transform="matrix(0.791741 0.610857 -0.446825 0.894621 7.02173 10.2524)" stroke="#FFFFFF" stroke-width="0.66px" fill="none"></line>
<line y1="-0.33" x2="11.5418" y2="-0.33" transform="matrix(0.77021 -0.63779 0.472911 0.88111 7.04858 23.0991)" stroke="#FFFFFF" stroke-width="0.66px" fill="none"></line>
<line y1="-0.33" x2="9.3018" y2="-0.33" transform="matrix(0.849501 0.527587 -0.373422 0.927662 7.04858 23.0991)" stroke="#FFFFFF" stroke-width="0.66px" fill="none"></line>
<line y1="-0.33" x2="30.4537" y2="-0.33" transform="matrix(0.809563 -0.587033 0.581576 0.813492 7.1377 34.4624)" stroke="#FFFFFF" stroke-width="0.66px" fill="none"></line>
<ellipse cx="7.53785" cy="10.1295" rx="2.9585" ry="2.97956" fill="#FFFFFF"></ellipse>
<ellipse cx="7.13819" cy="22.0474" rx="2.9585" ry="2.97956" fill="#FFFFFF"></ellipse>
<ellipse cx="7.13819" cy="33.9659" rx="2.9585" ry="2.97956" fill="#FFFFFF"></ellipse>
<ellipse cx="23.4094" cy="22.0474" rx="2.9585" ry="2.97956" fill="#FFFFFF"></ellipse>
<ellipse cx="31.2988" cy="28.0069" rx="2.9585" ry="2.97956" fill="#FFFFFF"></ellipse>
<ellipse cx="31.2988" cy="16.0884" rx="2.9585" ry="2.97956" fill="#FFFFFF"></ellipse>
<ellipse cx="15.521" cy="28.0069" rx="2.9585" ry="2.97956" fill="#FFFFFF"></ellipse>
<ellipse cx="15.521" cy="16.0884" rx="2.9585" ry="2.97956" fill="#FFFFFF"></ellipse>
<path d="M50.6542 31V11.1472H53.5828V28.4938H63.4107V31H50.6542ZM72.1931 31.2534C70.6912 31.2534 69.3958 30.9718 68.307 30.4086C67.2369 29.8267 66.4015 29.01 65.8007 27.9587C65.2188 26.8886 64.9278 25.6214 64.9278 24.1571C64.9278 22.7303 65.2188 21.4819 65.8007 20.4118C66.3827 19.3418 67.1806 18.5063 68.1943 17.9056C69.2081 17.3049 70.3627 17.0045 71.658 17.0045C72.9346 17.0045 74.0235 17.2861 74.9246 17.8493C75.8445 18.3937 76.5485 19.1728 77.0366 20.1866C77.5247 21.2003 77.7687 22.4112 77.7687 23.8192V24.7766H67.1806V23.0307H75.8539L75.3751 23.425C75.3751 22.017 75.0654 20.9281 74.4459 20.1584C73.8263 19.3887 72.9346 19.0038 71.7707 19.0038C70.8883 19.0038 70.1374 19.2103 69.5179 19.6234C68.9171 20.0364 68.4572 20.609 68.138 21.3411C67.8189 22.0733 67.6593 22.9275 67.6593 23.9037V24.0726C67.6593 25.1615 67.8283 26.0814 68.1662 26.8323C68.5229 27.5645 69.0391 28.1183 69.715 28.4938C70.3908 28.8692 71.2262 29.057 72.2212 29.057C73.0097 29.057 73.7794 28.9349 74.5303 28.6909C75.3 28.4281 76.0228 28.0244 76.6987 27.48L77.5435 29.4512C76.9239 30.0144 76.1261 30.4556 75.1499 30.7747C74.1736 31.0939 73.188 31.2534 72.1931 31.2534ZM86.6992 31.2534C84.9908 31.2534 83.7048 30.8123 82.8413 29.9299C81.9965 29.0476 81.5741 27.771 81.5741 26.1002V19.4544H78.8989V17.2579H81.5741V13.1184H84.4182V17.2579H88.6704V19.4544H84.4182V25.8749C84.4182 26.8699 84.6247 27.6208 85.0378 28.1277C85.4695 28.6346 86.1642 28.888 87.1216 28.888C87.4032 28.888 87.6848 28.8505 87.9664 28.7754C88.2668 28.7003 88.5578 28.6252 88.8394 28.5501L89.2899 30.6902C89.0083 30.8592 88.6141 30.9906 88.1072 31.0845C87.6191 31.1971 87.1498 31.2534 86.6992 31.2534ZM96.4342 31.2534C94.7258 31.2534 93.4398 30.8123 92.5763 29.9299C91.7315 29.0476 91.3091 27.771 91.3091 26.1002V19.4544H88.6339V17.2579H91.3091V13.1184H94.1532V17.2579H98.4054V19.4544H94.1532V25.8749C94.1532 26.8699 94.3597 27.6208 94.7727 28.1277C95.2045 28.6346 95.8991 28.888 96.8566 28.888C97.1382 28.888 97.4198 28.8505 97.7014 28.7754C98.0018 28.7003 98.2927 28.6252 98.5743 28.5501L99.0249 30.6902C98.7433 30.8592 98.3491 30.9906 97.8422 31.0845C97.3541 31.1971 96.8847 31.2534 96.4342 31.2534ZM107.173 31.2534C105.671 31.2534 104.376 30.9718 103.287 30.4086C102.217 29.8267 101.381 29.01 100.781 27.9587C100.199 26.8886 99.9078 25.6214 99.9078 24.1571C99.9078 22.7303 100.199 21.4819 100.781 20.4118C101.363 19.3418 102.161 18.5063 103.174 17.9056C104.188 17.3049 105.343 17.0045 106.638 17.0045C107.915 17.0045 109.003 17.2861 109.905 17.8493C110.824 18.3937 111.528 19.1728 112.017 20.1866C112.505 21.2003 112.749 22.4112 112.749 23.8192V24.7766H102.161V23.0307H110.834L110.355 23.425C110.355 22.017 110.045 20.9281 109.426 20.1584C108.806 19.3887 107.915 19.0038 106.751 19.0038C105.868 19.0038 105.117 19.2103 104.498 19.6234C103.897 20.0364 103.437 20.609 103.118 21.3411C102.799 22.0733 102.639 22.9275 102.639 23.9037V24.0726C102.639 25.1615 102.808 26.0814 103.146 26.8323C103.503 27.5645 104.019 28.1183 104.695 28.4938C105.371 28.8692 106.206 29.057 107.201 29.057C107.99 29.057 108.759 28.9349 109.51 28.6909C110.28 28.4281 111.003 28.0244 111.679 27.48L112.523 29.4512C111.904 30.0144 111.106 30.4556 110.13 30.7747C109.154 31.0939 108.168 31.2534 107.173 31.2534ZM115.849 31V17.2579H118.609V20.5526H118.327C118.628 19.4262 119.163 18.5721 119.933 17.9901C120.721 17.4081 121.763 17.0702 123.058 16.9763L123.988 16.92L124.185 19.3418L122.467 19.5107C121.247 19.6234 120.317 20.0082 119.679 20.6653C119.041 21.3223 118.722 22.2235 118.722 23.3686V31H115.849ZM132.062 31L140.905 11.1472H143.326L152.197 31H149.212L146.79 25.368L148.114 26.1565H136.117L137.413 25.368L135.019 31H132.062ZM142.087 14.3856L137.835 24.4669L137.131 23.791H147.072L146.424 24.4669L142.144 14.3856H142.087ZM154.797 31V11.1472H157.725V31H154.797Z" fill="#FFFFFF"></path>
</g>
<defs>
<linearGradient id="paint0_linear_9203_53879" x1="7.76755" y1="2.74999" x2="66.3625" y2="15.499" gradientUnits="userSpaceOnUse">
<stop stop-color="#2BB5DD"></stop>
<stop offset="1" stop-color="#0E78CF"></stop>
</linearGradient>
<clipPath id="clip0_9203_53879">
<rect width="161.04" height="44" fill="white"></rect>
</clipPath>
<linearGradient id="paint0_linear_9203_53879" x1="7.76755" y1="2.74999" x2="66.3625" y2="15.499" gradientUnits="userSpaceOnUse">
<stop stop-color="#2BB5DD"></stop>
<stop offset="1" stop-color="#0E78CF"></stop>
</linearGradient></defs>
</svg>