<svg width="204" height="90" viewBox="0 0 204 90" fill="none" xmlns="http://www.w3.org/2000/svg">
<path d="M64.6 53.11H51.98V12.85H38.46V53.11H26.14V12.85H12.62V53.11H0V0.229971H64.6V53.11ZM133.7 12.85H81.74V20.36H133.72V32.98H81.73V40.49H133.71V53.11H69.1V0.229971H133.7V12.85ZM202.82 12.85H150.84V20.36H202.82V53.11H138.22V40.5H190.2V33H138.22V0.219971H202.82V12.84V12.85ZM94.53 79.67C94.95 80.79 95.45 82.3 95.45 82.3H95.5C95.5 82.3 95.97 80.79 96.39 79.67L99.46 71.27H101.71L95.94 85.85C94.84 88.64 93.8 89.21 92.16 89.21C91.36 89.21 90.83 89.16 90.26 88.93V87.05H90.36C90.65 87.21 91.09 87.34 91.8 87.34C92.68 87.34 93.28 87 93.8 85.69L94.33 84.36L89.06 71.26H91.36L94.53 79.66V79.67ZM156.27 70.95C159.68 70.95 162.06 73.56 162.06 78.05C162.06 82.38 159.84 85.15 156.19 85.15C155.372 85.2012 154.553 85.0458 153.811 84.6981C153.068 84.3504 152.425 83.8214 151.94 83.16H151.89V89.08H149.78V71.26H151.88V73.16H151.94C152.419 72.4596 153.067 71.8909 153.824 71.5065C154.58 71.1221 155.422 70.9341 156.27 70.96V70.95ZM130.59 84.75H128.48V83.11H128.43C127.956 83.7685 127.326 84.2988 126.597 84.6532C125.867 85.0076 125.06 85.1749 124.25 85.14C120.58 85.14 118.28 82.38 118.28 78.04C118.28 73.56 120.86 70.95 124.2 70.95C125.034 70.9377 125.858 71.1344 126.597 71.5221C127.336 71.9099 127.966 72.4764 128.43 73.17H128.48V66.1H130.59V84.75ZM139.74 65.73C144.4 65.73 146.34 68.11 146.8 71.55H144.59C144.25 68.89 142.53 67.56 139.79 67.56C137.26 67.56 135.59 68.63 135.59 70.56C135.59 72.67 137.68 73.3 140.47 73.85C144.09 74.58 147.4 75.46 147.4 79.67C147.4 83.17 144.56 85.12 140.54 85.12C135.3 85.12 132.8 82.2 132.59 78.44H134.89C135.19 81.6 137.13 83.24 140.65 83.24C143.23 83.24 145.08 82.07 145.08 79.74C145.08 77.19 142.84 76.59 139.5 75.86C136.22 75.13 133.4 74.19 133.4 70.66C133.4 67.59 135.96 65.73 139.74 65.73ZM183.22 70.93C186.4 70.93 188.52 72.75 188.98 75.63H186.84C186.53 73.8 185.25 72.67 183.22 72.67C180.35 72.67 178.86 75.05 178.86 78.02C178.86 81 180.36 83.34 183.22 83.34C185.41 83.34 186.72 82.09 186.9 80H188.98C188.7 83.24 186.58 85.12 183.22 85.12C179.2 85.12 176.7 81.93 176.7 78.02C176.7 74.11 179.2 70.92 183.22 70.92V70.93ZM196.62 70.93C200.65 70.93 202.82 74.06 202.82 78.52H192.39C192.54 81.26 194.03 83.34 196.74 83.34C198.7 83.34 200 82.41 200.47 80.58H202.53C201.9 83.48 199.79 85.12 196.74 85.12C192.62 85.12 190.22 81.93 190.22 78.02C190.22 74.11 192.78 70.92 196.62 70.92V70.93ZM169.4 71C172.27 71 174.38 72.07 174.38 75.28V81.7C174.38 82.8 174.65 83.4 175.82 83.14H175.9V84.67C175.64 84.77 175.3 84.88 174.75 84.88C173.37 84.88 172.64 84.26 172.43 82.88H172.4C171.877 83.5666 171.198 84.1182 170.419 84.4887C169.639 84.8592 168.782 85.038 167.92 85.01C165.36 85.01 163.36 83.81 163.36 81.26C163.36 78.07 165.86 77.42 169.22 76.9C171.12 76.61 172.46 76.43 172.46 74.97C172.46 73.46 171.36 72.59 169.43 72.59C167.24 72.59 166.15 73.53 166.07 75.57H164.03C164.11 72.96 165.83 71 169.41 71H169.4ZM78.17 81.6H78.22L84.22 66.1H87.27V84.75H85V69.41H84.95C84.95 69.41 84.45 70.87 84.12 71.76L79.01 84.76H77.21L72.1 71.76C71.73 70.82 71.26 69.41 71.26 69.41H71.21V84.75H69.1V66.1H72.1L78.15 81.6H78.17ZM116.69 68.16H105.87V74.06H115.7V76.04H105.87V82.59H117V84.75H103.52V66.1H116.69V68.16ZM172.49 77.47C171.53 77.9725 170.492 78.3105 169.42 78.47C167.3 78.86 165.61 79.22 165.61 81.21C165.61 83.01 167.01 83.4 168.4 83.4C171.21 83.4 172.5 81.33 172.5 79.77V77.47H172.49ZM156.07 72.75C153.12 72.75 151.77 75.15 151.77 78.07C151.77 81 152.94 83.37 156.04 83.37C158.63 83.37 159.9 81.13 159.9 78.07C159.9 75.05 158.63 72.75 156.07 72.75ZM124.32 72.75C121.76 72.75 120.46 75.05 120.46 78.07C120.46 81.13 121.76 83.37 124.34 83.37C127.34 83.37 128.62 81.13 128.62 78.07C128.62 74.94 127.11 72.75 124.32 72.75ZM196.62 72.59C194.12 72.59 192.76 74.47 192.45 76.93H200.55C200.43 74.23 199.05 72.59 196.62 72.59Z" fill="#3533FF"/>
</svg>
