<svg width="1117" height="150" viewBox="0 0 1117 150" fill="none" xmlns="http://www.w3.org/2000/svg">
<path opacity="0.3" d="M157.555 53.9258H39.6498C30.0456 53.9258 22.2598 61.5661 22.2598 70.9911V79.1827C22.2598 88.6077 30.0456 96.2481 39.6498 96.2481H157.555C167.159 96.2481 174.945 88.6077 174.945 79.1827V70.9911C174.945 61.5661 167.159 53.9258 157.555 53.9258Z" fill="#067FEC"/>
<path opacity="0.3" d="M184.685 107.676H66.7806C57.176 107.676 49.3901 115.316 49.3901 124.741V132.933C49.3901 142.358 57.176 149.998 66.7806 149.998H184.685C194.29 149.998 202.076 142.358 202.076 132.933V124.741C202.076 115.316 194.29 107.676 184.685 107.676Z" fill="#067FEC"/>
<path d="M135.295 0H17.3901C7.78584 0 0 7.64046 0 17.0654V25.2568C0 34.6816 7.78584 42.3223 17.3901 42.3223H135.295C144.9 42.3223 152.685 34.6816 152.685 25.2568V17.0654C152.685 7.64046 144.9 0 135.295 0Z" fill="#067FEC"/>
<path d="M106.776 53.9258H39.6498C30.0456 53.9258 22.2598 61.5661 22.2598 70.9911V79.1827C22.2598 88.6077 30.0456 96.2481 39.6498 96.2481H106.776C116.38 96.2481 124.166 88.6077 124.166 79.1827V70.9911C124.166 61.5661 116.38 53.9258 106.776 53.9258Z" fill="#067FEC"/>
<path d="M82.9534 107.676H66.7806C57.176 107.676 49.3901 115.316 49.3901 124.741V132.933C49.3901 142.358 57.176 149.998 66.7806 149.998H82.9534C92.5577 149.998 100.344 142.358 100.344 132.933V124.741C100.344 115.316 92.5577 107.676 82.9534 107.676Z" fill="#067FEC"/>
<path d="M341.42 9.73438V34.5153H305.14V141.48H278.609V34.5153H242.488V9.73438H341.26H341.42Z" fill="#0A0A0A"/>
<path d="M410.462 47.3734H435.237V141.477H410.462V130.342C403.111 139.439 392.564 144.144 379.139 144.144C365.713 144.144 355.323 139.282 346.213 129.715C337.103 120.147 332.468 108.384 332.468 94.4255C332.468 80.4666 337.103 68.7036 346.213 59.1364C355.323 49.5692 366.352 44.707 379.139 44.707C392.564 44.707 402.95 49.2556 410.462 58.5091V47.3734ZM364.754 113.56C369.708 118.579 376.1 120.932 383.772 120.932C391.444 120.932 397.836 118.422 402.79 113.56C407.905 108.541 410.302 102.267 410.302 94.4255C410.302 86.5834 407.744 80.3098 402.79 75.2908C397.675 70.2722 391.444 67.9195 383.772 67.9195C376.1 67.9195 369.708 70.429 364.754 75.2908C359.8 80.3098 357.242 86.5834 357.242 94.4255C357.242 102.267 359.8 108.541 364.754 113.56Z" fill="#0A0A0A"/>
<path d="M511.533 44.7098C524.481 44.7098 535.509 49.5717 544.619 59.1392C553.728 68.7064 558.362 80.4694 558.362 94.428C558.362 108.387 553.728 120.15 544.619 129.717C535.509 139.285 524.481 144.146 511.533 144.146C498.59 144.146 487.722 139.598 480.528 130.345V141.48H455.756V9.73438H480.528V58.5116C487.879 49.4148 498.108 44.7098 511.533 44.7098ZM487.879 113.563C492.833 118.582 499.228 120.934 506.9 120.934C514.572 120.934 520.964 118.425 525.918 113.563C531.033 108.544 533.43 102.27 533.43 94.428C533.43 86.5862 530.872 80.3126 525.918 75.2936C520.804 70.2746 514.572 67.9223 506.9 67.9223C499.228 67.9223 492.833 70.4314 487.879 75.2936C482.924 80.3126 480.367 86.5862 480.367 94.428C480.367 102.27 482.924 108.544 487.879 113.563Z" fill="#0A0A0A"/>
<path d="M573.924 141.485V9.46875H598.696V141.485H573.924Z" fill="#0A0A0A"/>
<path d="M640.312 104.463C643.668 116.226 652.621 122.186 667.323 122.186C676.754 122.186 683.944 119.049 688.738 112.776L708.719 124.068C699.288 137.556 685.382 144.144 666.845 144.144C651.019 144.144 638.236 139.439 628.645 130.028C619.058 120.618 614.26 108.698 614.26 94.4255C614.26 80.153 619.057 68.3899 628.485 58.9796C637.915 49.5689 650.063 44.707 664.926 44.707C678.99 44.707 690.657 49.412 699.766 58.9796C708.876 68.5468 713.513 80.3098 713.513 94.4255C713.513 97.5623 713.192 100.856 712.553 104.463H640.312ZM639.994 85.6424H688.898C687.461 79.2117 684.583 74.5067 680.11 71.3699C675.634 68.2331 670.679 66.6646 665.087 66.6646C658.374 66.6646 652.938 68.3899 648.622 71.6835C644.307 74.9772 641.432 79.6825 639.994 85.6424Z" fill="#0A0A0A"/>
<path d="M810.267 34.515H756.565V65.7264H797.518V90.5071H756.565V141.323H730.032V9.73438H810.267V34.515Z" fill="#0A0A0A"/>
<path d="M824.771 141.474V10.2266H849.542V141.474H824.771Z" fill="#0A0A0A"/>
<path d="M953.909 129.714C944 139.282 932.012 144.144 917.788 144.144C903.564 144.144 891.576 139.282 881.828 129.714C872.076 120.147 867.122 108.384 867.122 94.4255C867.122 80.4666 872.076 68.7036 881.828 59.1364C891.576 49.5689 903.564 44.707 917.788 44.707C932.012 44.707 944 49.5689 953.909 59.1364C963.817 68.7036 968.611 80.4666 968.611 94.4255C968.611 108.384 963.657 120.147 953.909 129.714ZM899.408 113.089C904.363 117.951 910.437 120.461 917.948 120.461C925.46 120.461 931.534 117.951 936.489 113.089C941.443 108.227 944 101.954 944 94.4255C944 86.897 941.443 80.6234 936.489 75.7613C931.534 70.8994 925.3 68.3899 917.948 68.3899C910.597 68.3899 904.363 70.8994 899.408 75.7613C894.454 80.6234 892.057 86.897 892.057 94.4255C892.057 101.954 894.454 108.227 899.408 113.089Z" fill="#0A0A0A"/>
<path d="M1090.24 47.3711H1116.45L1085.92 141.475H1062.27L1044.69 84.3853L1027.11 141.475H1003.45L972.926 47.3711H999.138L1015.44 105.088L1032.86 47.3711H1056.2L1073.62 105.402L1089.92 47.3711H1090.24Z" fill="#0A0A0A"/>
</svg>
