<svg width="60" height="60" viewBox="0 0 60 60" fill="none" xmlns="http://www.w3.org/2000/svg">
<g clip-path="url(#clip0_6_5)">
<path d="M30 60C46.5685 60 60 46.5685 60 30C60 13.4315 46.5685 0 30 0C13.4315 0 0 13.4315 0 30C0 46.5685 13.4315 60 30 60Z" fill="#040506"/>
<path d="M28.6667 20.6667L22 26H16.6667V34H22L28.6667 39.3333V20.6667Z" stroke="#EBEBEB" stroke-width="1.5" stroke-linecap="round" stroke-linejoin="round"/>
<path d="M39.4267 20.5733C41.9263 23.0737 43.3305 26.4645 43.3305 30C43.3305 33.5355 41.9263 36.9263 39.4267 39.4267M34.72 25.28C35.9698 26.5302 36.6719 28.2256 36.6719 29.9933C36.6719 31.7611 35.9698 33.4565 34.72 34.7067" stroke="#EBEBEB" stroke-width="1.5" stroke-linecap="round" stroke-linejoin="round"/>
</g>
<defs>
<clipPath id="clip0_6_5">
<rect width="60" height="60" fill="white"/>
</clipPath>
</defs>
</svg>
